<?xml version="1.0" encoding="UTF-8"?>
<svg width="66px" height="123px" viewBox="0 0 66 123" version="1.1" xmlns="http://www.w3.org/2000/svg" xmlns:xlink="http://www.w3.org/1999/xlink">
    <!-- Generator: Sketch 51.2 (57519) - http://www.bohemiancoding.com/sketch -->
    <title>Group 9</title>
    <desc>Created with Sketch.</desc>
    <defs></defs>
    <g id="Page-1" stroke="none" stroke-width="1" fill="none" fill-rule="evenodd">
        <g id="Group-9">
            <path d="M40,112 C45.7989899,112 56.5,104.344685 56.5,87.5 C56.5,70.6553151 51.2989899,51 45.5,51 C39.7010101,51 35,64.6553151 35,81.5 C35,98.3446849 34.2010101,112 40,112 Z" id="Oval-9" fill="#D0528F"></path>
            <path d="M39,75 C53.9116882,75 66,52.382251 66,32.5 C66,12.617749 53.9116882,0 39,0 C27.7017626,0 14,0.5 8.5,17 C3,33.5 17.5,27.6820656 17.5,32.5 C17.5,52.382251 24.0883118,75 39,75 Z" id="Oval-8" fill="#D0528F"></path>
            <path d="M17.7496272,112.154668 C17.7476762,112.103354 17.7466919,112.051792 17.7466919,112 C17.7466919,109.790861 19.5375529,108 21.7466919,108 C23.9558309,108 25.7466919,109.790861 25.7466919,112 C25.7466919,112.035855 25.7462201,112.0716 25.7452825,112.107229 C26.2139549,111.893323 26.5,111.40779 26.5,110.5 C26.5,105 18,95.7274736 18,89.2542142 C18,69.3719632 25.1487254,51 31.5,51 C37.8512746,51 43,67.117749 43,87 C43,106.882251 38.5783681,123 31.5,123 C26.5,123 20,122 18,114 C17.806712,113.226848 17.7301748,112.621817 17.7496272,112.154668 Z" id="Combined-Shape" fill="#6A5282"></path>
            <ellipse id="Oval-2" fill="#6A5282" cx="5.5" cy="47.5" rx="5.5" ry="3.5"></ellipse>
            <path d="M26,110.5 C28.7466919,110.5 28.8239565,106.031003 29.7466919,102.5 C30.4373498,99.8570803 28.1523788,94.4647268 28.7466919,89.5 C29.2918136,84.9462039 30.7466919,80.8488991 30.7466919,77.5 C30.7466919,70.5 25.284258,61 22.2466919,61 C19.2091257,61 16.7466919,70.6258779 16.7466919,82.5 C16.7466919,94.3741221 22.2466919,110.5 26,110.5 Z" id="Oval-7" fill="#E8EBED"></path>
            <ellipse id="Oval" fill="#6A5282" cx="29.5" cy="44.5" rx="24.5" ry="23.5"></ellipse>
            <circle id="Oval-3" fill="#FFFFFF" cx="31" cy="40" r="8"></circle>
            <circle id="Oval-4" fill="#151918" cx="31" cy="40" r="4"></circle>
            <path d="M26.5,9.5 L26.5,20.5" id="Line" stroke="#DB5A9C" stroke-linecap="square"></path>
            <path d="M33.25,10 L32,20.5" id="Line" stroke="#DB5A9C" stroke-linecap="square"></path>
            <path d="M20.5,74.5 L29.5,74.5" id="Line-2" stroke="#F4F5F6" stroke-linecap="square"></path>
            <path d="M20.5,78.5 L29.5,78.5" id="Line-2" stroke="#F4F5F6" stroke-linecap="square"></path>
            <path d="M20.5,82.5 L29.5,82.5" id="Line-2" stroke="#F4F5F6" stroke-linecap="square"></path>
            <path d="M21.5,86.5 L28.5,86.5" id="Line-2" stroke="#F4F5F6" stroke-linecap="square"></path>
            <path d="M31.0841566,80.9054002 C31.5631634,76.4178985 34.0294892,73 37,73 C40.3137085,73 43,77.2532949 43,82.5 C43,83.7200374 42.8547467,84.8863591 42.5901274,85.9579765 C42.8554443,87.5838107 43,89.8138742 43,91 C43,96.5228475 39.8659932,101 36,101 C32.1340068,101 29,96.5228475 29,91 C29,88.3678269 29.7118733,82.9731779 30.8755856,81.1875309 C30.9435838,81.0831916 31.0131248,80.9894246 31.0841566,80.9054002 Z" id="Combined-Shape" fill="#D75DA3"></path>
            <path d="M33.5,80.5 C34.2725425,79.4878418 35.5225425,79.1545085 37.25,79.5 C38.9774575,79.8454915 40.2274575,80.6788248 41,82" id="Line-3" stroke="#D0528F" stroke-linecap="square"></path>
            <path d="M33,83.1318798 C33.7725425,82.1197216 35.0225425,81.7863883 36.75,82.1318798 C38.4774575,82.4773713 39.7274575,83.3107046 40.5,84.6318798" id="Line-3" stroke="#D0528F" stroke-linecap="square"></path>
            <path d="M33,86.1318798 C33.7725425,85.1197216 35.0225425,84.7863883 36.75,85.1318798 C38.4774575,85.4773713 39.7274575,86.3107046 40.5,87.6318798" id="Line-3" stroke="#D0528F" stroke-linecap="square"></path>
            <path d="M32,94.1318798 C32.7725425,93.1197216 34.0225425,92.7863883 35.75,93.1318798 C37.4774575,93.4773713 38.7274575,94.3107046 39.5,95.6318798" id="Line-3" stroke="#D0528F" stroke-linecap="square"></path>
        </g>
    </g>
</svg>